#N canvas 5 91 241 363 12;
#X obj 45 43 inlet;
#X obj 92 81 loadbang;
#X obj 92 106 t b b;
#X obj 92 132 f \$2;
#X obj 131 132 f \$1;
#X obj 92 157 -;
#X obj 45 215 *;
#X obj 45 254 +;
#X obj 45 279 outlet;
#X connect 0 0 6 0;
#X connect 1 0 2 0;
#X connect 2 0 3 0;
#X connect 2 1 4 0;
#X connect 3 0 5 0;
#X connect 4 0 5 1;
#X connect 4 0 7 1;
#X connect 5 0 6 1;
#X connect 6 0 7 0;
#X connect 7 0 8 0;
